<svg width="12" height="15" viewBox="0 0 12 15" fill="none" xmlns="http://www.w3.org/2000/svg">
<path d="M11 9V7.25C11 6.65326 10.7629 6.08097 10.341 5.65901C9.91903 5.23705 9.34674 5 8.75 5H7.75C7.55109 5 7.36032 4.92098 7.21967 4.78033C7.07902 4.63968 7 4.44891 7 4.25V3.25C7 2.65326 6.76295 2.08097 6.34099 1.65901C5.91903 1.23705 5.34674 1 4.75 1H3.5M3.5 9.5H8.5M3.5 11.5H6M5 1H1.75C1.336 1 1 1.336 1 1.75V13.25C1 13.664 1.336 14 1.75 14H10.25C10.664 14 11 13.664 11 13.25V7C11 5.4087 10.3679 3.88258 9.24264 2.75736C8.11742 1.63214 6.5913 1 5 1Z" stroke="white" stroke-opacity="0.7" stroke-linecap="round" stroke-linejoin="round"/>
</svg>
