<svg width="15" height="12" viewBox="0 0 15 12" fill="none" xmlns="http://www.w3.org/2000/svg">
<g clip-path="url(#clip0_336_10003)">
<path d="M12.7065 0.94217C11.7209 0.495682 10.6805 0.178928 9.61183 0C9.46559 0.258704 9.33327 0.524875 9.21542 0.7974C8.07705 0.627649 6.91939 0.627649 5.78102 0.7974C5.66311 0.524903 5.53079 0.258735 5.3846 0C4.31522 0.180439 3.27413 0.497945 2.28762 0.944505C0.329153 3.81188 -0.201757 6.60803 0.063698 9.36449C1.21063 10.2031 2.49437 10.8408 3.85912 11.25C4.16642 10.841 4.43834 10.4071 4.672 9.95291C4.2282 9.78889 3.79985 9.58652 3.39192 9.34815C3.49928 9.27109 3.60428 9.1917 3.70575 9.11465C4.89274 9.66704 6.18829 9.95345 7.49999 9.95345C8.81169 9.95345 10.1072 9.66704 11.2942 9.11465C11.3969 9.19754 11.5019 9.27693 11.6081 9.34815C11.1993 9.5869 10.7702 9.78966 10.3256 9.95408C10.559 10.4081 10.8309 10.8416 11.1385 11.25C12.5044 10.8424 13.7891 10.205 14.9363 9.36566C15.2477 6.16905 14.4042 3.39858 12.7065 0.94217ZM5.00825 7.66929C4.26851 7.66929 3.65737 7.00498 3.65737 6.18773C3.65737 5.37049 4.24728 4.70034 5.00589 4.70034C5.7645 4.70034 6.37092 5.37049 6.35794 6.18773C6.34496 7.00498 5.76214 7.66929 5.00825 7.66929ZM9.99173 7.66929C9.25081 7.66929 8.64204 7.00498 8.64204 6.18773C8.64204 5.37049 9.23194 4.70034 9.99173 4.70034C10.7515 4.70034 11.3532 5.37049 11.3402 6.18773C11.3273 7.00498 10.7456 7.66929 9.99173 7.66929Z" fill="white" fill-opacity="0.7"/>
</g>
<defs>
<clipPath id="clip0_336_10003">
<rect width="15" height="11.25" fill="white"/>
</clipPath>
</defs>
</svg>
