<svg width="15" height="15" viewBox="0 0 15 15" fill="none" xmlns="http://www.w3.org/2000/svg">
<path fill-rule="evenodd" clip-rule="evenodd" d="M7.47765 0C3.3427 0 0 3.4375 0 7.69016C0 11.0895 2.14179 13.967 5.11301 14.9855C5.48449 15.062 5.62056 14.82 5.62056 14.6164C5.62056 14.4381 5.60832 13.827 5.60832 13.1903C3.52821 13.6487 3.09505 12.2736 3.09505 12.2736C2.76077 11.3823 2.26546 11.1533 2.26546 11.1533C1.58464 10.6822 2.31505 10.6822 2.31505 10.6822C3.07026 10.7331 3.46653 11.4716 3.46653 11.4716C4.13495 12.6428 5.21204 12.3119 5.64536 12.1081C5.70719 11.6116 5.90541 11.2678 6.11587 11.0769C4.45684 10.8986 2.71133 10.2366 2.71133 7.28266C2.71133 6.44234 3.00827 5.75484 3.47878 5.22016C3.40454 5.02922 3.14449 4.23969 3.55316 3.18297C3.55316 3.18297 4.18454 2.97922 5.60816 3.97234C6.21767 3.80401 6.84624 3.71838 7.47765 3.71766C8.10903 3.71766 8.75265 3.80687 9.34699 3.97234C10.7708 2.97922 11.4021 3.18297 11.4021 3.18297C11.8108 4.23969 11.5506 5.02922 11.4764 5.22016C11.9593 5.75484 12.244 6.44234 12.244 7.28266C12.244 10.2366 10.4985 10.8858 8.82704 11.0769C9.09949 11.3187 9.33459 11.777 9.33459 12.5028C9.33459 13.5341 9.32235 14.3617 9.32235 14.6162C9.32235 14.82 9.45857 15.062 9.8299 14.9856C12.8011 13.9669 14.9429 11.0895 14.9429 7.69016C14.9552 3.4375 11.6002 0 7.47765 0Z" fill="white" fill-opacity="0.7"/>
</svg>
