<svg width="14" height="16" viewBox="0 0 14 16" fill="none" xmlns="http://www.w3.org/2000/svg">
<path d="M5.19529 1.955C5.26279 1.5485 5.61529 1.25 6.02779 1.25H7.97254C8.38504 1.25 8.73754 1.5485 8.80504 1.955L8.96479 2.91575C9.01204 3.19625 9.19954 3.43025 9.44854 3.56825C9.50404 3.59825 9.55879 3.6305 9.61354 3.6635C9.85654 3.8105 10.1535 3.85625 10.4198 3.7565L11.3325 3.4145C11.5196 3.34416 11.7255 3.34248 11.9137 3.40978C12.1019 3.47708 12.26 3.60899 12.36 3.782L13.332 5.46725C13.4318 5.64028 13.467 5.8431 13.4313 6.03962C13.3956 6.23615 13.2913 6.41363 13.137 6.5405L12.3848 7.16075C12.165 7.34075 12.0563 7.6205 12.0615 7.90475C12.0627 7.96849 12.0627 8.03226 12.0615 8.096C12.0563 8.3795 12.165 8.6585 12.384 8.8385L13.1378 9.4595C13.4558 9.722 13.5383 10.175 13.3328 10.532L12.3593 12.2172C12.2594 12.3902 12.1014 12.5222 11.9134 12.5896C11.7254 12.657 11.5196 12.6556 11.3325 12.5855L10.4198 12.2435C10.1535 12.1438 9.85729 12.1895 9.61279 12.3365C9.55841 12.3696 9.5034 12.4016 9.44779 12.4325C9.19954 12.5697 9.01204 12.8037 8.96479 13.0842L8.80504 14.0443C8.73754 14.4515 8.38504 14.75 7.97254 14.75H6.02704C5.61454 14.75 5.26204 14.4515 5.19454 14.045L5.03479 13.0842C4.98829 12.8037 4.80079 12.5698 4.55179 12.4318C4.49617 12.4011 4.44116 12.3693 4.38679 12.3365C4.14304 12.1895 3.84679 12.1438 3.57979 12.2435L2.66704 12.5855C2.48008 12.6556 2.27431 12.6572 2.08631 12.5899C1.89831 12.5226 1.74027 12.3908 1.64029 12.218L0.667538 10.5327C0.567745 10.3597 0.532573 10.1569 0.56828 9.96038C0.603987 9.76385 0.708257 9.58637 0.862538 9.4595L1.61554 8.83925C1.83454 8.65925 1.94329 8.3795 1.93804 8.09525C1.93687 8.03151 1.93687 7.96774 1.93804 7.904C1.94329 7.6205 1.83454 7.3415 1.61554 7.1615L0.862538 6.5405C0.708443 6.41367 0.604294 6.23633 0.568592 6.03997C0.532891 5.84361 0.567949 5.64095 0.667538 5.468L1.64029 3.78275C1.74018 3.6096 1.8983 3.47754 2.08647 3.4101C2.27465 3.34266 2.48065 3.34422 2.66779 3.4145L3.57979 3.7565C3.84679 3.85625 4.14304 3.8105 4.38679 3.6635C4.44079 3.6305 4.49629 3.59825 4.55179 3.5675C4.80079 3.43025 4.98829 3.19625 5.03479 2.91575L5.19529 1.955Z" stroke="white" stroke-opacity="0.7" stroke-linecap="round" stroke-linejoin="round"/>
</svg>
